<svg xmlns="http://www.w3.org/2000/svg" viewBox="0 0 680.0576 88.8511"><defs><clipPath id="a"><path fill="none" d="M0 1.938h508.923v81.619H0z"/></clipPath></defs><title>products</title><g clip-path="url(#a)"><path fill="#175582" d="M476.961 14.965v53.082h31.962v-8.394h-22.776V14.965h-9.186z"/><g clip-path="url(#a)"><path d="M436.424 69.38a30.647 30.647 0 0 1-10.952-1.942 26.032 26.032 0 0 1-8.738-5.479 24.375 24.375 0 0 1-5.72-8.573 33.564 33.564 0 0 1-2.02-11.879 31.63 31.63 0 0 1 2.099-11.641 25.698 25.698 0 0 1 14.51-14.212 29.5 29.5 0 0 1 11.013-2.02 29.039 29.039 0 0 1 10.906 2.021 26.474 26.474 0 0 1 8.696 5.624 25.673 25.673 0 0 1 5.743 8.593 32.131 32.131 0 0 1 2.06 11.635 27.825 27.825 0 0 1-3.014 13.152 24.54 24.54 0 0 1-8.014 8.453c-.451.265-.858.493-1.224.689l10.598 3.656v7.287zm.192-47.424a17.123 17.123 0 0 0-12.975 5.543 17.944 17.944 0 0 0-3.614 5.968 25.14 25.14 0 0 0-1.27 8.04 25.704 25.704 0 0 0 1.27 8.151 17.763 17.763 0 0 0 3.577 5.966 16.868 16.868 0 0 0 5.575 3.975 19.03 19.03 0 0 0 14.625-.002 16.786 16.786 0 0 0 5.608-3.973 18.278 18.278 0 0 0 3.614-5.974 25.096 25.096 0 0 0 1.304-8.143 25.823 25.823 0 0 0-1.236-8.048 17.782 17.782 0 0 0-3.543-5.966 17.077 17.077 0 0 0-5.578-4.045 17.55 17.55 0 0 0-7.357-1.492m-55.394 47.388a25.203 25.203 0 0 1-9.728-1.953 19.61 19.61 0 0 1-7.865-5.854l-.628-.78 7.188-6.067.639.946a12.831 12.831 0 0 0 10.539 5.53 12.321 12.321 0 0 0 3.326-.466 9.137 9.137 0 0 0 2.95-1.426 7.702 7.702 0 0 0 2.132-2.388 6.756 6.756 0 0 0 .8-3.415 6.16 6.16 0 0 0-.816-3.311 7.62 7.62 0 0 0-2.323-2.318 16.524 16.524 0 0 0-3.63-1.727 275.973 275.973 0 0 0-4.63-1.543 41.038 41.038 0 0 1-4.926-1.803 17.779 17.779 0 0 1-4.51-2.83 13.374 13.374 0 0 1-3.28-4.328 14.568 14.568 0 0 1-1.255-6.358 14.166 14.166 0 0 1 1.683-7.064 15.207 15.207 0 0 1 4.326-4.866 17.934 17.934 0 0 1 5.96-2.792 25.74 25.74 0 0 1 6.57-.863 23.088 23.088 0 0 1 8.748 1.66 17.747 17.747 0 0 1 6.65 4.52l.654.734-6.6 6.412-.695-.96a10.416 10.416 0 0 0-3.747-3.112 11.623 11.623 0 0 0-5.37-1.22 12.661 12.661 0 0 0-3.234.434 8.661 8.661 0 0 0-2.868 1.353 7.357 7.357 0 0 0-2.056 2.279 6.283 6.283 0 0 0-.763 3.197 5.811 5.811 0 0 0 .687 2.975 6.522 6.522 0 0 0 1.934 2.056 13.266 13.266 0 0 0 3.079 1.535c1.25.45 2.613.92 4.049 1.398a87.68 87.68 0 0 1 5.3 1.816 20.04 20.04 0 0 1 5.092 2.812 14.232 14.232 0 0 1 3.805 4.464 14.037 14.037 0 0 1 1.497 6.8 16.16 16.16 0 0 1-1.588 7.348 15.203 15.203 0 0 1-4.213 5.175 17.837 17.837 0 0 1-6.001 3.022 24.553 24.553 0 0 1-6.882.978m-33.928-1.299V23.304L326.79 68.045h-3.37l-20.358-44.566v44.566h-4.325V14.838h5.242l21.199 46.573 21.198-46.573h5.242v53.207h-4.324zm-94.42 0V14.838h32.577v3.838h-28.253v19.737h26.591v4.18h-26.591v21.616h29.409v3.836h-33.733zm-18.088 0V23.304l-20.505 44.741h-3.37l-20.358-44.566v44.566h-4.324V14.838h5.242l21.198 46.573 21.198-46.573h5.242v53.207h-4.323zM51.905 1.938a4.516 4.516 0 0 0-2.956 1.965L.777 76.632a4.451 4.451 0 0 0-.625 3.662 4.511 4.511 0 0 0 6.884 2.483l42.692-28.735a6.976 6.976 0 0 1 2.177-.974V1.938z" fill="#175582"/><path d="M81.38 38.392a4.517 4.517 0 0 1-2.914-1.932L56.543 3.874a4.514 4.514 0 0 0-2.934-1.936V52.85a7 7 0 0 1 3.64.993l21.4 14.696a7.015 7.015 0 0 0 2.732.941V38.392z" fill="#0089bc"/><path d="M110.903 1.938a4.517 4.517 0 0 0-2.94 1.937L86.042 36.46a4.518 4.518 0 0 1-2.956 1.941v31.082a6.997 6.997 0 0 0 2.773-.945l21.4-14.696a7.002 7.002 0 0 1 3.645-.993V1.938z" fill="#175582"/><path d="M163.73 76.63L115.558 3.903a4.518 4.518 0 0 0-2.951-1.964v51.13a6.996 6.996 0 0 1 2.173.973l42.691 28.736a4.513 4.513 0 0 0 6.885-2.484 4.456 4.456 0 0 0-.626-3.662" fill="#0089bc"/></g></g><path fill="none" stroke="#1f5880" stroke-miterlimit="10" d="M531 1.938v81.618"/><path d="M578.381 68.267c-13.693 0-24.815-11.12-24.815-26.723 0-16.1 10.623-26.807 24.981-26.807 13.694 0 24.815 11.038 24.815 26.64 0 16.101-10.623 26.89-24.98 26.89zm-.083-50.459c-12.2 0-21.163 9.71-21.163 23.57s9.296 23.819 21.495 23.819 21.163-9.793 21.163-23.653-9.294-23.736-21.495-23.736zm50.132 11.204c9.794 0 17.097 7.635 17.097 19.254 0 12.118-7.718 20.001-18.258 20.001a21.096 21.096 0 0 1-10.291-2.904v21.412h-3.403V29.177l3.403-.995v5.395a17.54 17.54 0 0 1 11.453-4.565zm-11.452 33.03a18.869 18.869 0 0 0 10.54 3.155c8.548 0 14.523-6.723 14.523-16.93 0-9.213-5.477-16.184-13.86-16.184a16.705 16.705 0 0 0-11.204 4.813v25.147zm46.645 6.225a22.157 22.157 0 0 1-11.537-3.236l1.08-3.154a19.666 19.666 0 0 0 10.623 3.403c4.812 0 9.627-2.573 9.627-7.387 0-5.477-5.063-6.805-10.125-8.548s-10.707-4.15-10.707-10.457c0-6.805 5.395-10.29 11.95-10.29a24.663 24.663 0 0 1 10.79 2.738l-1.162 3.07a20.386 20.386 0 0 0-9.96-2.905c-5.144 0-8.547 2.739-8.547 6.972 0 4.98 4.98 6.473 9.96 8.133 5.228 1.743 10.871 3.983 10.871 10.955 0 6.64-5.809 10.706-12.863 10.706z" fill="#1b5680"/></svg>