<svg xmlns="http://www.w3.org/2000/svg" xmlns:xlink="http://www.w3.org/1999/xlink" viewBox="0 0 680.0576 88.8511"><defs><clipPath id="a"><rect y="1.9375" width="508.923" height="81.619" fill="none"/></clipPath></defs><title>products</title><g clip-path="url(#a)"><polygon points="476.961 14.965 476.961 68.047 508.923 68.047 508.923 59.653 486.147 59.653 486.147 14.965 476.961 14.965" fill="#175582"/><g clip-path="url(#a)"><path d="M436.4237,69.38a30.6466,30.6466,0,0,1-10.952-1.942,26.0322,26.0322,0,0,1-8.738-5.479,24.3745,24.3745,0,0,1-5.719-8.573,33.5638,33.5638,0,0,1-2.02-11.879,31.63,31.63,0,0,1,2.098-11.641,25.6975,25.6975,0,0,1,14.511-14.212,29.5,29.5,0,0,1,11.012-2.02,29.039,29.039,0,0,1,10.906,2.021,26.4739,26.4739,0,0,1,8.696,5.624,25.6731,25.6731,0,0,1,5.743,8.593,32.1312,32.1312,0,0,1,2.061,11.635,27.825,27.825,0,0,1-3.015,13.152,24.54,24.54,0,0,1-8.014,8.453c-0.451.265-.858,0.493-1.224,0.689l10.598,3.656v7.287Zm0.192-47.424a17.1231,17.1231,0,0,0-12.975,5.543,17.9441,17.9441,0,0,0-3.614,5.968,25.1409,25.1409,0,0,0-1.27,8.04,25.7042,25.7042,0,0,0,1.271,8.151,17.7634,17.7634,0,0,0,3.576,5.966,16.8676,16.8676,0,0,0,5.575,3.975,19.03,19.03,0,0,0,14.625-.002,16.7856,16.7856,0,0,0,5.608-3.973,18.278,18.278,0,0,0,3.614-5.974,25.0963,25.0963,0,0,0,1.304-8.143,25.8234,25.8234,0,0,0-1.236-8.048,17.7821,17.7821,0,0,0-3.543-5.966,17.0769,17.0769,0,0,0-5.578-4.045,17.5494,17.5494,0,0,0-7.357-1.492" fill="#175582"/><path d="M381.2217,69.3437a25.203,25.203,0,0,1-9.728-1.953,19.61,19.61,0,0,1-7.865-5.854l-0.628-.78,7.188-6.067,0.639,0.946a12.8312,12.8312,0,0,0,10.539,5.531,12.3211,12.3211,0,0,0,3.326-.467,9.1373,9.1373,0,0,0,2.951-1.426,7.7025,7.7025,0,0,0,2.131-2.388,6.7562,6.7562,0,0,0,.801-3.415,6.1608,6.1608,0,0,0-.817-3.311,7.6194,7.6194,0,0,0-2.323-2.318,16.5236,16.5236,0,0,0-3.629-1.727c-1.431-.492-2.989-1.011-4.631-1.543a41.0385,41.0385,0,0,1-4.926-1.803,17.7787,17.7787,0,0,1-4.51-2.83,13.3745,13.3745,0,0,1-3.28-4.328,14.5683,14.5683,0,0,1-1.255-6.358,14.1662,14.1662,0,0,1,1.683-7.064,15.2073,15.2073,0,0,1,4.326-4.866,17.9341,17.9341,0,0,1,5.961-2.792,25.74,25.74,0,0,1,6.57-.863,23.088,23.088,0,0,1,8.747,1.661,17.7469,17.7469,0,0,1,6.65,4.52l0.654,0.733-6.6,6.412-0.695-.959a10.4161,10.4161,0,0,0-3.747-3.113,11.6227,11.6227,0,0,0-5.369-1.22,12.6613,12.6613,0,0,0-3.235.434,8.6613,8.6613,0,0,0-2.868,1.353,7.357,7.357,0,0,0-2.056,2.279,6.283,6.283,0,0,0-.763,3.197,5.8115,5.8115,0,0,0,.687,2.975,6.5224,6.5224,0,0,0,1.934,2.056,13.2656,13.2656,0,0,0,3.079,1.535c1.251,0.45,2.613.92,4.049,1.398,1.71,0.523,3.501,1.136,5.301,1.816a20.04,20.04,0,0,1,5.091,2.812,14.2322,14.2322,0,0,1,3.805,4.464,14.0369,14.0369,0,0,1,1.497,6.801,16.16,16.16,0,0,1-1.588,7.347,15.2033,15.2033,0,0,1-4.213,5.175,17.8366,17.8366,0,0,1-6.001,3.022,24.553,24.553,0,0,1-6.882.978" fill="#175582"/><polygon points="347.294 68.045 347.294 23.304 326.79 68.045 323.42 68.045 303.062 23.479 303.062 68.045 298.737 68.045 298.737 14.838 303.979 14.838 325.178 61.411 346.376 14.838 351.618 14.838 351.618 68.045 347.294 68.045" fill="#175582"/><polygon points="252.874 68.045 252.874 14.838 285.451 14.838 285.451 18.676 257.198 18.676 257.198 38.413 283.789 38.413 283.789 42.593 257.198 42.593 257.198 64.209 286.607 64.209 286.607 68.045 252.874 68.045" fill="#175582"/><polygon points="234.786 68.045 234.786 23.304 214.281 68.045 210.911 68.045 190.553 23.479 190.553 68.045 186.229 68.045 186.229 14.838 191.471 14.838 212.669 61.411 233.867 14.838 239.109 14.838 239.109 68.045 234.786 68.045" fill="#175582"/><path d="M51.9052,1.9376a4.5163,4.5163,0,0,0-2.956,1.965L0.7772,76.6316a4.4512,4.4512,0,0,0-.625,3.662,4.5114,4.5114,0,0,0,6.884,2.483l42.692-28.735a6.9762,6.9762,0,0,1,2.177-.974V1.9376Z" fill="#175582"/><path d="M81.3807,38.3924a4.5172,4.5172,0,0,1-2.915-1.932L56.5427,3.8744a4.5143,4.5143,0,0,0-2.934-1.936v50.911a7,7,0,0,1,3.64.993l21.4,14.696a7.0154,7.0154,0,0,0,2.732.941V38.3924Z" fill="#0089bc"/><path d="M110.9029,1.9375a4.517,4.517,0,0,0-2.939,1.937L86.0409,36.46a4.5178,4.5178,0,0,1-2.956,1.941v31.082a6.9971,6.9971,0,0,0,2.773-.945l21.401-14.696a7.0021,7.0021,0,0,1,3.644-.993V1.9375Z" fill="#175582"/><path d="M163.73,76.6307l-48.172-72.729a4.5182,4.5182,0,0,0-2.951-1.964v51.131a6.9962,6.9962,0,0,1,2.173.972l42.691,28.736a4.5131,4.5131,0,0,0,6.885-2.484,4.4561,4.4561,0,0,0-.626-3.662" fill="#0089bc"/></g></g><line x1="531" y1="1.9375" x2="531" y2="83.5565" fill="none" stroke="#1f5880" stroke-miterlimit="10"/><path d="M578.3813,68.2673c-13.6938,0-24.8149-11.1211-24.8149-26.7236,0-16.1006,10.623-26.8066,24.981-26.8066,13.6938,0,24.8149,11.0381,24.8149,26.6406C603.3623,57.4783,592.7393,68.2673,578.3813,68.2673Zm-0.083-50.459c-12.2,0-21.1631,9.71-21.1631,23.5693S566.4307,65.197,578.63,65.197s21.1631-9.793,21.1631-23.6533S590.4985,17.8083,578.2983,17.8083Z" fill="#1b5680"/><path d="M628.4307,29.0115c9.793,0,17.0967,7.6357,17.0967,19.2549,0,12.1172-7.7187,20.001-18.2588,20.001a21.0958,21.0958,0,0,1-10.291-2.9043V86.7751h-3.4023V29.1775l3.4023-.9951v5.3945A17.5392,17.5392,0,0,1,628.4307,29.0115ZM616.9775,62.0427a18.8689,18.8689,0,0,0,10.54,3.1543c8.5488,0,14.5234-6.7227,14.5234-16.9307,0-9.2119-5.4766-16.1836-13.8594-16.1836a16.7047,16.7047,0,0,0-11.2041,4.8135V62.0427Z" fill="#1b5680"/><path d="M663.6226,68.2673a22.1574,22.1574,0,0,1-11.5366-3.2363l1.0791-3.1543A19.6663,19.6663,0,0,0,663.7886,65.28c4.8125,0,9.627-2.5732,9.627-7.3867,0-5.4775-5.0625-6.8057-10.125-8.5479s-10.7065-4.15-10.7065-10.457c0-6.8057,5.3945-10.291,11.9507-10.291a24.663,24.663,0,0,1,10.7891,2.7383l-1.1621,3.07a20.3863,20.3863,0,0,0-9.959-2.9043c-5.145,0-8.5474,2.7383-8.5474,6.9717,0,4.9795,4.9795,6.4727,9.9595,8.1328,5.2285,1.7432,10.8711,3.9834,10.8711,10.9551C676.4858,64.2009,670.6772,68.2673,663.6226,68.2673Z" fill="#1b5680"/></svg>